<mxfile host="Electron" agent="Mozilla/5.0 (Windows NT 10.0; Win64; x64) AppleWebKit/537.36 (KHTML, like Gecko) draw.io/26.0.9 Chrome/128.0.6613.186 Electron/32.2.5 Safari/537.36" version="26.0.9">
  <diagram id="C5RBs43oDa-KdzZeNtuy" name="Page-1">
    <mxGraphModel dx="1056" dy="655" grid="1" gridSize="10" guides="1" tooltips="1" connect="1" arrows="1" fold="1" page="1" pageScale="1" pageWidth="827" pageHeight="1169" math="0" shadow="0">
      <root>
        <mxCell id="WIyWlLk6GJQsqaUBKTNV-0" />
        <mxCell id="WIyWlLk6GJQsqaUBKTNV-1" parent="WIyWlLk6GJQsqaUBKTNV-0" />
        <mxCell id="4KFp8uktd63oGreHXYiJ-53" style="edgeStyle=orthogonalEdgeStyle;rounded=0;orthogonalLoop=1;jettySize=auto;html=1;exitX=0.5;exitY=1;exitDx=0;exitDy=0;" edge="1" parent="WIyWlLk6GJQsqaUBKTNV-1" source="4KFp8uktd63oGreHXYiJ-0" target="4KFp8uktd63oGreHXYiJ-52">
          <mxGeometry relative="1" as="geometry" />
        </mxCell>
        <mxCell id="4KFp8uktd63oGreHXYiJ-0" value="Algus" style="ellipse;whiteSpace=wrap;html=1;" vertex="1" parent="WIyWlLk6GJQsqaUBKTNV-1">
          <mxGeometry x="360" y="30" width="120" height="40" as="geometry" />
        </mxCell>
        <mxCell id="4KFp8uktd63oGreHXYiJ-8" style="edgeStyle=orthogonalEdgeStyle;rounded=0;orthogonalLoop=1;jettySize=auto;html=1;exitX=1;exitY=0.5;exitDx=0;exitDy=0;entryX=0.5;entryY=0;entryDx=0;entryDy=0;" edge="1" parent="WIyWlLk6GJQsqaUBKTNV-1" source="4KFp8uktd63oGreHXYiJ-4" target="4KFp8uktd63oGreHXYiJ-4">
          <mxGeometry relative="1" as="geometry">
            <mxPoint x="420" y="180" as="targetPoint" />
            <Array as="points">
              <mxPoint x="543" y="255" />
              <mxPoint x="543" y="180" />
              <mxPoint x="420" y="180" />
            </Array>
          </mxGeometry>
        </mxCell>
        <mxCell id="4KFp8uktd63oGreHXYiJ-9" value="Ei" style="edgeLabel;html=1;align=center;verticalAlign=middle;resizable=0;points=[];" vertex="1" connectable="0" parent="4KFp8uktd63oGreHXYiJ-8">
          <mxGeometry x="-0.5126" y="1" relative="1" as="geometry">
            <mxPoint x="1" as="offset" />
          </mxGeometry>
        </mxCell>
        <mxCell id="4KFp8uktd63oGreHXYiJ-11" style="edgeStyle=orthogonalEdgeStyle;rounded=0;orthogonalLoop=1;jettySize=auto;html=1;exitX=0.5;exitY=1;exitDx=0;exitDy=0;" edge="1" parent="WIyWlLk6GJQsqaUBKTNV-1" source="4KFp8uktd63oGreHXYiJ-4" target="4KFp8uktd63oGreHXYiJ-10">
          <mxGeometry relative="1" as="geometry" />
        </mxCell>
        <mxCell id="4KFp8uktd63oGreHXYiJ-4" value="Kas teller on sisestanud ostja ostusumma?" style="rhombus;whiteSpace=wrap;html=1;" vertex="1" parent="WIyWlLk6GJQsqaUBKTNV-1">
          <mxGeometry x="317.5" y="200" width="205" height="110" as="geometry" />
        </mxCell>
        <mxCell id="4KFp8uktd63oGreHXYiJ-13" style="edgeStyle=orthogonalEdgeStyle;rounded=0;orthogonalLoop=1;jettySize=auto;html=1;exitX=0.5;exitY=1;exitDx=0;exitDy=0;" edge="1" parent="WIyWlLk6GJQsqaUBKTNV-1" source="4KFp8uktd63oGreHXYiJ-10" target="4KFp8uktd63oGreHXYiJ-12">
          <mxGeometry relative="1" as="geometry" />
        </mxCell>
        <mxCell id="4KFp8uktd63oGreHXYiJ-14" value="Ei" style="edgeLabel;html=1;align=center;verticalAlign=middle;resizable=0;points=[];" vertex="1" connectable="0" parent="4KFp8uktd63oGreHXYiJ-13">
          <mxGeometry x="-0.2" relative="1" as="geometry">
            <mxPoint as="offset" />
          </mxGeometry>
        </mxCell>
        <mxCell id="4KFp8uktd63oGreHXYiJ-25" style="edgeStyle=orthogonalEdgeStyle;rounded=0;orthogonalLoop=1;jettySize=auto;html=1;exitX=1;exitY=0.5;exitDx=0;exitDy=0;" edge="1" parent="WIyWlLk6GJQsqaUBKTNV-1" source="4KFp8uktd63oGreHXYiJ-10" target="4KFp8uktd63oGreHXYiJ-24">
          <mxGeometry relative="1" as="geometry">
            <Array as="points">
              <mxPoint x="590" y="390" />
              <mxPoint x="590" y="390" />
            </Array>
          </mxGeometry>
        </mxCell>
        <mxCell id="4KFp8uktd63oGreHXYiJ-26" value="JAH" style="edgeLabel;html=1;align=center;verticalAlign=middle;resizable=0;points=[];" vertex="1" connectable="0" parent="4KFp8uktd63oGreHXYiJ-25">
          <mxGeometry x="0.04" relative="1" as="geometry">
            <mxPoint as="offset" />
          </mxGeometry>
        </mxCell>
        <mxCell id="4KFp8uktd63oGreHXYiJ-10" value="Kas ostja ostusumma on suurem kui 100?" style="rhombus;whiteSpace=wrap;html=1;" vertex="1" parent="WIyWlLk6GJQsqaUBKTNV-1">
          <mxGeometry x="315" y="340" width="210" height="100" as="geometry" />
        </mxCell>
        <mxCell id="4KFp8uktd63oGreHXYiJ-16" style="edgeStyle=orthogonalEdgeStyle;rounded=0;orthogonalLoop=1;jettySize=auto;html=1;exitX=0.5;exitY=1;exitDx=0;exitDy=0;" edge="1" parent="WIyWlLk6GJQsqaUBKTNV-1" source="4KFp8uktd63oGreHXYiJ-12" target="4KFp8uktd63oGreHXYiJ-15">
          <mxGeometry relative="1" as="geometry" />
        </mxCell>
        <mxCell id="4KFp8uktd63oGreHXYiJ-20" value="" style="edgeStyle=orthogonalEdgeStyle;rounded=0;orthogonalLoop=1;jettySize=auto;html=1;" edge="1" parent="WIyWlLk6GJQsqaUBKTNV-1" source="4KFp8uktd63oGreHXYiJ-12" target="4KFp8uktd63oGreHXYiJ-15">
          <mxGeometry relative="1" as="geometry" />
        </mxCell>
        <mxCell id="4KFp8uktd63oGreHXYiJ-21" value="Ei" style="edgeLabel;html=1;align=center;verticalAlign=middle;resizable=0;points=[];" vertex="1" connectable="0" parent="4KFp8uktd63oGreHXYiJ-20">
          <mxGeometry x="-0.32" y="2" relative="1" as="geometry">
            <mxPoint as="offset" />
          </mxGeometry>
        </mxCell>
        <mxCell id="4KFp8uktd63oGreHXYiJ-29" style="edgeStyle=orthogonalEdgeStyle;rounded=0;orthogonalLoop=1;jettySize=auto;html=1;exitX=1;exitY=0.5;exitDx=0;exitDy=0;" edge="1" parent="WIyWlLk6GJQsqaUBKTNV-1" source="4KFp8uktd63oGreHXYiJ-12" target="4KFp8uktd63oGreHXYiJ-27">
          <mxGeometry relative="1" as="geometry" />
        </mxCell>
        <mxCell id="4KFp8uktd63oGreHXYiJ-55" value="JAH" style="edgeLabel;html=1;align=center;verticalAlign=middle;resizable=0;points=[];" vertex="1" connectable="0" parent="4KFp8uktd63oGreHXYiJ-29">
          <mxGeometry x="-0.2235" y="2" relative="1" as="geometry">
            <mxPoint as="offset" />
          </mxGeometry>
        </mxCell>
        <mxCell id="4KFp8uktd63oGreHXYiJ-12" value="Kas ostja ostusumma on suurem kui 50 ja väiksem kui 101?" style="rhombus;whiteSpace=wrap;html=1;" vertex="1" parent="WIyWlLk6GJQsqaUBKTNV-1">
          <mxGeometry x="325" y="470" width="190" height="100" as="geometry" />
        </mxCell>
        <mxCell id="4KFp8uktd63oGreHXYiJ-19" style="edgeStyle=orthogonalEdgeStyle;rounded=0;orthogonalLoop=1;jettySize=auto;html=1;exitX=0.5;exitY=1;exitDx=0;exitDy=0;" edge="1" parent="WIyWlLk6GJQsqaUBKTNV-1" source="4KFp8uktd63oGreHXYiJ-15" target="4KFp8uktd63oGreHXYiJ-18">
          <mxGeometry relative="1" as="geometry" />
        </mxCell>
        <mxCell id="4KFp8uktd63oGreHXYiJ-23" value="Ei" style="edgeLabel;html=1;align=center;verticalAlign=middle;resizable=0;points=[];" vertex="1" connectable="0" parent="4KFp8uktd63oGreHXYiJ-19">
          <mxGeometry x="0.28" y="1" relative="1" as="geometry">
            <mxPoint as="offset" />
          </mxGeometry>
        </mxCell>
        <mxCell id="4KFp8uktd63oGreHXYiJ-31" style="edgeStyle=orthogonalEdgeStyle;rounded=0;orthogonalLoop=1;jettySize=auto;html=1;exitX=1;exitY=0.5;exitDx=0;exitDy=0;" edge="1" parent="WIyWlLk6GJQsqaUBKTNV-1" source="4KFp8uktd63oGreHXYiJ-15" target="4KFp8uktd63oGreHXYiJ-30">
          <mxGeometry relative="1" as="geometry">
            <Array as="points">
              <mxPoint x="570" y="690" />
              <mxPoint x="570" y="690" />
            </Array>
          </mxGeometry>
        </mxCell>
        <mxCell id="4KFp8uktd63oGreHXYiJ-56" value="JAH" style="edgeLabel;html=1;align=center;verticalAlign=middle;resizable=0;points=[];" vertex="1" connectable="0" parent="4KFp8uktd63oGreHXYiJ-31">
          <mxGeometry x="-0.3143" relative="1" as="geometry">
            <mxPoint as="offset" />
          </mxGeometry>
        </mxCell>
        <mxCell id="4KFp8uktd63oGreHXYiJ-15" value="Kas ostja ostusumma on suurem kui 20 ja väiksem kui 51?" style="rhombus;whiteSpace=wrap;html=1;" vertex="1" parent="WIyWlLk6GJQsqaUBKTNV-1">
          <mxGeometry x="320" y="640" width="200" height="100" as="geometry" />
        </mxCell>
        <mxCell id="4KFp8uktd63oGreHXYiJ-33" style="edgeStyle=orthogonalEdgeStyle;rounded=0;orthogonalLoop=1;jettySize=auto;html=1;exitX=1;exitY=0.5;exitDx=0;exitDy=0;" edge="1" parent="WIyWlLk6GJQsqaUBKTNV-1" source="4KFp8uktd63oGreHXYiJ-18" target="4KFp8uktd63oGreHXYiJ-32">
          <mxGeometry relative="1" as="geometry">
            <Array as="points">
              <mxPoint x="560" y="810" />
              <mxPoint x="560" y="810" />
            </Array>
          </mxGeometry>
        </mxCell>
        <mxCell id="4KFp8uktd63oGreHXYiJ-57" value="JAH" style="edgeLabel;html=1;align=center;verticalAlign=middle;resizable=0;points=[];" vertex="1" connectable="0" parent="4KFp8uktd63oGreHXYiJ-33">
          <mxGeometry x="-0.2615" y="-2" relative="1" as="geometry">
            <mxPoint as="offset" />
          </mxGeometry>
        </mxCell>
        <mxCell id="4KFp8uktd63oGreHXYiJ-35" style="edgeStyle=orthogonalEdgeStyle;rounded=0;orthogonalLoop=1;jettySize=auto;html=1;exitX=0.5;exitY=1;exitDx=0;exitDy=0;" edge="1" parent="WIyWlLk6GJQsqaUBKTNV-1" source="4KFp8uktd63oGreHXYiJ-18" target="4KFp8uktd63oGreHXYiJ-34">
          <mxGeometry relative="1" as="geometry" />
        </mxCell>
        <mxCell id="4KFp8uktd63oGreHXYiJ-36" value="Ei" style="edgeLabel;html=1;align=center;verticalAlign=middle;resizable=0;points=[];" vertex="1" connectable="0" parent="4KFp8uktd63oGreHXYiJ-35">
          <mxGeometry x="-0.08" relative="1" as="geometry">
            <mxPoint as="offset" />
          </mxGeometry>
        </mxCell>
        <mxCell id="4KFp8uktd63oGreHXYiJ-18" value="Kas ostja ostusumma on väiksem kui 21?" style="rhombus;whiteSpace=wrap;html=1;" vertex="1" parent="WIyWlLk6GJQsqaUBKTNV-1">
          <mxGeometry x="325" y="770" width="190" height="80" as="geometry" />
        </mxCell>
        <mxCell id="4KFp8uktd63oGreHXYiJ-51" style="edgeStyle=orthogonalEdgeStyle;rounded=0;orthogonalLoop=1;jettySize=auto;html=1;exitX=1;exitY=0.5;exitDx=0;exitDy=0;" edge="1" parent="WIyWlLk6GJQsqaUBKTNV-1" source="4KFp8uktd63oGreHXYiJ-24" target="4KFp8uktd63oGreHXYiJ-44">
          <mxGeometry relative="1" as="geometry">
            <Array as="points">
              <mxPoint x="800" y="380" />
              <mxPoint x="800" y="1270" />
              <mxPoint x="420" y="1270" />
            </Array>
          </mxGeometry>
        </mxCell>
        <mxCell id="4KFp8uktd63oGreHXYiJ-24" value="Kuvame kasutajaöe teksti &quot;Saad 20% allahindlust!&quot;" style="shape=parallelogram;perimeter=parallelogramPerimeter;whiteSpace=wrap;html=1;fixedSize=1;" vertex="1" parent="WIyWlLk6GJQsqaUBKTNV-1">
          <mxGeometry x="600" y="350" width="190" height="60" as="geometry" />
        </mxCell>
        <mxCell id="4KFp8uktd63oGreHXYiJ-50" style="edgeStyle=orthogonalEdgeStyle;rounded=0;orthogonalLoop=1;jettySize=auto;html=1;exitX=1;exitY=0.5;exitDx=0;exitDy=0;" edge="1" parent="WIyWlLk6GJQsqaUBKTNV-1" source="4KFp8uktd63oGreHXYiJ-27" target="4KFp8uktd63oGreHXYiJ-44">
          <mxGeometry relative="1" as="geometry">
            <Array as="points">
              <mxPoint x="800" y="520" />
              <mxPoint x="800" y="1270" />
              <mxPoint x="420" y="1270" />
            </Array>
          </mxGeometry>
        </mxCell>
        <mxCell id="4KFp8uktd63oGreHXYiJ-27" value="Kuvame kasutajale teksti &quot;Saad 10% allahindlust!&quot;" style="shape=parallelogram;perimeter=parallelogramPerimeter;whiteSpace=wrap;html=1;fixedSize=1;" vertex="1" parent="WIyWlLk6GJQsqaUBKTNV-1">
          <mxGeometry x="590" y="490" width="190" height="60" as="geometry" />
        </mxCell>
        <mxCell id="4KFp8uktd63oGreHXYiJ-49" style="edgeStyle=orthogonalEdgeStyle;rounded=0;orthogonalLoop=1;jettySize=auto;html=1;exitX=1;exitY=0.5;exitDx=0;exitDy=0;" edge="1" parent="WIyWlLk6GJQsqaUBKTNV-1" source="4KFp8uktd63oGreHXYiJ-30" target="4KFp8uktd63oGreHXYiJ-44">
          <mxGeometry relative="1" as="geometry">
            <Array as="points">
              <mxPoint x="800" y="670" />
              <mxPoint x="800" y="1270" />
              <mxPoint x="420" y="1270" />
            </Array>
          </mxGeometry>
        </mxCell>
        <mxCell id="4KFp8uktd63oGreHXYiJ-30" value="Kuvame kasutajale teksti &quot;Saad 5% allahindlust!&quot;" style="shape=parallelogram;perimeter=parallelogramPerimeter;whiteSpace=wrap;html=1;fixedSize=1;" vertex="1" parent="WIyWlLk6GJQsqaUBKTNV-1">
          <mxGeometry x="580" y="640" width="190" height="60" as="geometry" />
        </mxCell>
        <mxCell id="4KFp8uktd63oGreHXYiJ-46" style="edgeStyle=orthogonalEdgeStyle;rounded=0;orthogonalLoop=1;jettySize=auto;html=1;exitX=1;exitY=0.5;exitDx=0;exitDy=0;entryX=0.5;entryY=0;entryDx=0;entryDy=0;" edge="1" parent="WIyWlLk6GJQsqaUBKTNV-1" source="4KFp8uktd63oGreHXYiJ-32">
          <mxGeometry relative="1" as="geometry">
            <mxPoint x="750" y="730" as="sourcePoint" />
            <mxPoint x="420" y="1190" as="targetPoint" />
            <Array as="points">
              <mxPoint x="800" y="790" />
              <mxPoint x="800" y="1270" />
              <mxPoint x="420" y="1270" />
            </Array>
          </mxGeometry>
        </mxCell>
        <mxCell id="4KFp8uktd63oGreHXYiJ-32" value="Kuvame kasutajale teksti &quot;Allahindlust ei saa&quot;" style="shape=parallelogram;perimeter=parallelogramPerimeter;whiteSpace=wrap;html=1;fixedSize=1;" vertex="1" parent="WIyWlLk6GJQsqaUBKTNV-1">
          <mxGeometry x="570" y="760" width="190" height="60" as="geometry" />
        </mxCell>
        <mxCell id="4KFp8uktd63oGreHXYiJ-40" style="edgeStyle=orthogonalEdgeStyle;rounded=0;orthogonalLoop=1;jettySize=auto;html=1;exitX=0.5;exitY=1;exitDx=0;exitDy=0;" edge="1" parent="WIyWlLk6GJQsqaUBKTNV-1" source="4KFp8uktd63oGreHXYiJ-34" target="4KFp8uktd63oGreHXYiJ-39">
          <mxGeometry relative="1" as="geometry" />
        </mxCell>
        <mxCell id="4KFp8uktd63oGreHXYiJ-41" value="JAH" style="edgeLabel;html=1;align=center;verticalAlign=middle;resizable=0;points=[];" vertex="1" connectable="0" parent="4KFp8uktd63oGreHXYiJ-40">
          <mxGeometry x="-0.15" relative="1" as="geometry">
            <mxPoint as="offset" />
          </mxGeometry>
        </mxCell>
        <mxCell id="4KFp8uktd63oGreHXYiJ-34" value="Kas ostja ostusumma on väiksem kui 1?" style="rhombus;whiteSpace=wrap;html=1;" vertex="1" parent="WIyWlLk6GJQsqaUBKTNV-1">
          <mxGeometry x="325" y="920" width="190" height="100" as="geometry" />
        </mxCell>
        <mxCell id="4KFp8uktd63oGreHXYiJ-43" style="edgeStyle=orthogonalEdgeStyle;rounded=0;orthogonalLoop=1;jettySize=auto;html=1;exitX=0.5;exitY=1;exitDx=0;exitDy=0;" edge="1" parent="WIyWlLk6GJQsqaUBKTNV-1" source="4KFp8uktd63oGreHXYiJ-39" target="4KFp8uktd63oGreHXYiJ-42">
          <mxGeometry relative="1" as="geometry" />
        </mxCell>
        <mxCell id="4KFp8uktd63oGreHXYiJ-39" value="Veaolek, ostusumma ei saa olla 0 ega sellest väiksem" style="rounded=0;whiteSpace=wrap;html=1;" vertex="1" parent="WIyWlLk6GJQsqaUBKTNV-1">
          <mxGeometry x="330" y="1060" width="180" height="80" as="geometry" />
        </mxCell>
        <mxCell id="4KFp8uktd63oGreHXYiJ-45" style="edgeStyle=orthogonalEdgeStyle;rounded=0;orthogonalLoop=1;jettySize=auto;html=1;exitX=0.5;exitY=1;exitDx=0;exitDy=0;" edge="1" parent="WIyWlLk6GJQsqaUBKTNV-1" source="4KFp8uktd63oGreHXYiJ-42" target="4KFp8uktd63oGreHXYiJ-44">
          <mxGeometry relative="1" as="geometry" />
        </mxCell>
        <mxCell id="4KFp8uktd63oGreHXYiJ-42" value="Kuva tekst &quot;Sisestatud vigane arv&quot;" style="shape=parallelogram;perimeter=parallelogramPerimeter;whiteSpace=wrap;html=1;fixedSize=1;" vertex="1" parent="WIyWlLk6GJQsqaUBKTNV-1">
          <mxGeometry x="350" y="1170" width="140" height="70" as="geometry" />
        </mxCell>
        <mxCell id="4KFp8uktd63oGreHXYiJ-44" value="Lõpp" style="ellipse;whiteSpace=wrap;html=1;" vertex="1" parent="WIyWlLk6GJQsqaUBKTNV-1">
          <mxGeometry x="360" y="1300" width="120" height="80" as="geometry" />
        </mxCell>
        <mxCell id="4KFp8uktd63oGreHXYiJ-54" style="edgeStyle=orthogonalEdgeStyle;rounded=0;orthogonalLoop=1;jettySize=auto;html=1;exitX=0.5;exitY=1;exitDx=0;exitDy=0;" edge="1" parent="WIyWlLk6GJQsqaUBKTNV-1" source="4KFp8uktd63oGreHXYiJ-52" target="4KFp8uktd63oGreHXYiJ-4">
          <mxGeometry relative="1" as="geometry" />
        </mxCell>
        <mxCell id="4KFp8uktd63oGreHXYiJ-52" value="Kuva kasutajale tekst &quot;Sisesta ostusumma&quot;" style="shape=parallelogram;perimeter=parallelogramPerimeter;whiteSpace=wrap;html=1;fixedSize=1;" vertex="1" parent="WIyWlLk6GJQsqaUBKTNV-1">
          <mxGeometry x="348" y="110" width="144" height="60" as="geometry" />
        </mxCell>
        <mxCell id="4KFp8uktd63oGreHXYiJ-59" style="edgeStyle=orthogonalEdgeStyle;rounded=0;orthogonalLoop=1;jettySize=auto;html=1;exitX=0;exitY=0.5;exitDx=0;exitDy=0;" edge="1" parent="WIyWlLk6GJQsqaUBKTNV-1" source="4KFp8uktd63oGreHXYiJ-34">
          <mxGeometry relative="1" as="geometry">
            <mxPoint x="420" y="320" as="targetPoint" />
            <Array as="points">
              <mxPoint x="260" y="970" />
              <mxPoint x="260" y="320" />
            </Array>
          </mxGeometry>
        </mxCell>
      </root>
    </mxGraphModel>
  </diagram>
</mxfile>
